<svg xmlns="http://www.w3.org/2000/svg" viewBox="0 0 24 24" aria-hidden="true">
  <path fill="currentColor" d="M20.52 3.48A11.8 11.8 0 0 0 12.1 0C5.55 0 .22 5.32.22 11.86c0 2.09.55 4.13 1.59 5.93L.12 24l6.37-1.67a11.9 11.9 0 0 0 5.61 1.43h.01c6.54 0 11.87-5.32 11.87-11.87 0-3.17-1.23-6.15-3.46-8.41ZM12.1 21.76h-.01a9.86 9.86 0 0 1-5.03-1.38l-.36-.22-3.78.99 1.01-3.68-.24-.38a9.83 9.83 0 0 1-1.51-5.23c0-5.44 4.44-9.86 9.9-9.86a9.83 9.83 0 0 1 6.99 2.9 9.82 9.82 0 0 1 2.9 7c0 5.43-4.43 9.86-9.87 9.86Zm5.42-7.39c-.3-.15-1.76-.87-2.03-.97-.27-.1-.47-.15-.67.15-.2.3-.77.97-.94 1.17-.17.2-.35.22-.64.07-.3-.15-1.26-.46-2.4-1.48a8.96 8.96 0 0 1-1.66-2.06c-.17-.3-.02-.46.13-.61.13-.13.3-.35.45-.52.15-.17.2-.3.3-.5.1-.2.05-.37-.02-.52-.08-.15-.67-1.61-.92-2.2-.24-.58-.49-.5-.67-.51h-.57c-.2 0-.52.07-.79.37-.27.3-1.04 1.02-1.04 2.48s1.07 2.88 1.22 3.08c.15.2 2.1 3.2 5.08 4.49.71.31 1.27.49 1.7.63.71.23 1.36.2 1.88.12.57-.09 1.76-.72 2-1.41.25-.69.25-1.29.17-1.41-.07-.12-.27-.19-.57-.34Z"/>
</svg>
